<svg width="133" height="42" viewBox="0 0 133 42" fill="none" xmlns="http://www.w3.org/2000/svg">
<path d="M12 29H21" stroke="black" stroke-width="2" stroke-linecap="round" stroke-linejoin="round"/>
<path d="M16.5 12.5C16.8978 12.1022 17.4374 11.8787 18 11.8787C18.2786 11.8787 18.5544 11.9336 18.8118 12.0402C19.0692 12.1468 19.303 12.303 19.5 12.5C19.697 12.697 19.8532 12.9308 19.9598 13.1882C20.0665 13.4456 20.1213 13.7214 20.1213 14C20.1213 14.2786 20.0665 14.5544 19.9598 14.8118C19.8532 15.0692 19.697 15.303 19.5 15.5L7 28L3 29L4 25L16.5 12.5Z" stroke="black" stroke-width="2" stroke-linecap="round" stroke-linejoin="round"/>
<path d="M47.496 11.096C48.072 11.9493 48.4987 12.856 48.776 13.816C49.0533 14.7547 49.192 15.8 49.192 16.952C49.192 18.104 49.064 19.3307 48.808 20.632C48.552 21.9333 48.1253 23.2347 47.528 24.536C46.9307 25.8373 46.2053 26.9893 45.352 27.992C44.4987 28.9947 43.4213 29.816 42.12 30.456C40.8187 31.0747 39.3893 31.384 37.832 31.384C35.5493 31.384 33.7787 30.5733 32.52 28.952C31.2613 27.3093 30.632 25.208 30.632 22.648C30.632 20.0667 31.08 17.7093 31.976 15.576C32.8933 13.4213 34.1947 11.672 35.88 10.328C37.5867 8.96267 39.4747 8.28 41.544 8.28C42.9093 8.28 44.104 8.536 45.128 9.048C46.152 9.56 46.9413 10.2427 47.496 11.096ZM38.792 29.208C39.7947 29.208 40.6373 28.7707 41.32 27.896C42.024 27.0213 42.5573 25.88 42.92 24.472C43.6453 21.6987 44.008 18.8507 44.008 15.928C44.008 12.28 43.0267 10.456 41.064 10.456C39.9547 10.456 38.984 11.1173 38.152 12.44C36.5947 14.936 35.816 18.392 35.816 22.808C35.816 25.2187 35.9547 26.712 36.232 27.288C36.36 27.608 36.5307 27.9387 36.744 28.28C37.128 28.8987 37.8107 29.208 38.792 29.208ZM65.4718 29.048C63.6584 30.6053 62.0584 31.384 60.6718 31.384C59.3064 31.384 58.5171 30.7013 58.3038 29.336C57.6638 29.976 56.9491 30.4773 56.1598 30.84C55.3704 31.2027 54.6771 31.384 54.0798 31.384C53.0558 31.384 52.1811 30.936 51.4557 30.04C50.7304 29.144 50.3678 27.7573 50.3678 25.88C50.3678 23.064 50.9651 20.856 52.1598 19.256C53.3544 17.6347 54.6984 16.824 56.1918 16.824C57.7064 16.824 58.9758 17.1653 59.9998 17.848C60.6611 14.392 60.9918 11.672 60.9918 9.688L60.8318 8.344C62.4318 7.78933 63.9998 7.512 65.5358 7.512C65.7064 7.87467 65.7917 8.29067 65.7917 8.76C65.7917 10.3173 65.3224 13.4853 64.3838 18.264C63.4451 23.0213 62.9758 26.2533 62.9758 27.96C62.9758 28.472 63.0931 28.728 63.3278 28.728C63.4558 28.728 63.8611 28.5253 64.5438 28.12L64.8638 27.928L65.4718 29.048ZM57.7598 18.712C57.0131 18.712 56.3624 19.448 55.8078 20.92C55.2744 22.392 55.0078 23.8533 55.0078 25.304C55.0078 26.7333 55.1038 27.6507 55.2958 28.056C55.5091 28.4613 55.8184 28.664 56.2238 28.664C56.9278 28.664 57.6211 28.376 58.3038 27.8C58.3678 26.9467 58.8478 24.1093 59.7438 19.288C59.0184 18.904 58.3571 18.712 57.7598 18.712ZM70.7183 34.456C70.0143 34.8827 69.6623 35.2987 69.6623 35.704C69.6623 36.1093 69.8863 36.312 70.3343 36.312C70.8036 36.312 71.3263 36.088 71.9023 35.64C72.4783 35.2133 72.9583 34.5093 73.3423 33.528C72.3183 33.72 71.4436 34.0293 70.7183 34.456ZM69.1823 31.128C67.3903 31.128 66.4943 30.1467 66.4943 28.184C66.4943 27.7147 66.7076 26.36 67.1343 24.12C67.5609 21.88 67.7743 20.0133 67.7743 18.52C67.7743 18.2 67.7316 17.9013 67.6463 17.624C68.7983 17.176 70.3769 16.952 72.3823 16.952C72.4889 17.2507 72.5423 17.7627 72.5423 18.488C72.5423 19.2133 72.3076 20.7173 71.8383 23C71.3689 25.2827 71.1343 26.7547 71.1343 27.416C71.1343 28.0773 71.4116 28.408 71.9663 28.408C72.6276 28.408 73.4276 28.0773 74.3663 27.416C74.4729 26.1573 74.8996 22.84 75.6463 17.464C76.3929 17.1653 77.7369 17.016 79.6783 17.016H80.2863C79.8809 18.616 79.4863 20.92 79.1023 23.928C78.7183 26.936 78.4089 29.0267 78.1743 30.2C77.7263 32.5467 76.8943 34.456 75.6783 35.928C74.4836 37.4213 72.9156 38.168 70.9743 38.168C70.2063 38.168 69.5023 37.9653 68.8623 37.56C68.2436 37.1547 67.9343 36.632 67.9343 35.992C67.9343 35.1387 68.4569 34.36 69.5023 33.656C70.5476 32.952 71.9556 32.408 73.7263 32.024C73.9183 31.0853 74.0676 30.1787 74.1743 29.304C72.4463 30.52 70.7823 31.128 69.1823 31.128ZM90.8793 26.808C90.8793 28.152 90.2819 29.2507 89.0873 30.104C87.9139 30.9573 86.5699 31.384 85.0553 31.384C83.5406 31.384 82.3353 31.064 81.4393 30.424C80.5646 29.784 80.1273 29.2187 80.1273 28.728C80.1273 28.4293 80.5006 27.9493 81.2473 27.288C81.9939 26.6053 82.6233 26.1893 83.1353 26.04C84.2019 26.8293 85.0766 28.0773 85.7593 29.784C86.5486 29.72 86.9433 29.3467 86.9433 28.664C86.9433 27.6827 86.0793 26.296 84.3513 24.504C82.6233 22.6907 81.7593 21.2507 81.7593 20.184C81.7593 19.1173 82.2393 18.296 83.1993 17.72C84.1593 17.1227 85.3113 16.824 86.6553 16.824C88.0206 16.824 89.0446 17.0693 89.7273 17.56C90.4099 18.0293 90.7513 18.68 90.7513 19.512C90.7513 20.3227 90.1006 21.4533 88.7993 22.904C88.9486 23.0533 89.1406 23.256 89.3753 23.512C89.6099 23.7467 89.9193 24.2053 90.3033 24.888C90.6873 25.5707 90.8793 26.2107 90.8793 26.808ZM87.8073 21.784C88.7033 21.016 89.1513 20.2587 89.1513 19.512C89.1513 18.7653 88.6393 18.392 87.6153 18.392C87.1246 18.392 86.7193 18.4987 86.3993 18.712C86.0793 18.904 85.9193 19.128 85.9193 19.384C85.9193 19.8533 86.3886 20.5147 87.3273 21.368L87.8073 21.784ZM102.254 26.808C102.254 28.152 101.657 29.2507 100.462 30.104C99.2889 30.9573 97.9449 31.384 96.4303 31.384C94.9156 31.384 93.7103 31.064 92.8143 30.424C91.9396 29.784 91.5023 29.2187 91.5023 28.728C91.5023 28.4293 91.8756 27.9493 92.6223 27.288C93.3689 26.6053 93.9983 26.1893 94.5103 26.04C95.5769 26.8293 96.4516 28.0773 97.1343 29.784C97.9236 29.72 98.3183 29.3467 98.3183 28.664C98.3183 27.6827 97.4543 26.296 95.7263 24.504C93.9983 22.6907 93.1343 21.2507 93.1343 20.184C93.1343 19.1173 93.6143 18.296 94.5743 17.72C95.5343 17.1227 96.6863 16.824 98.0303 16.824C99.3956 16.824 100.42 17.0693 101.102 17.56C101.785 18.0293 102.126 18.68 102.126 19.512C102.126 20.3227 101.476 21.4533 100.174 22.904C100.324 23.0533 100.516 23.256 100.75 23.512C100.985 23.7467 101.294 24.2053 101.678 24.888C102.062 25.5707 102.254 26.2107 102.254 26.808ZM99.1823 21.784C100.078 21.016 100.526 20.2587 100.526 19.512C100.526 18.7653 100.014 18.392 98.9903 18.392C98.4996 18.392 98.0943 18.4987 97.7743 18.712C97.4543 18.904 97.2943 19.128 97.2943 19.384C97.2943 19.8533 97.7636 20.5147 98.7023 21.368L99.1823 21.784ZM103.613 25.464C103.613 22.7973 104.413 20.696 106.013 19.16C107.635 17.6027 109.469 16.824 111.517 16.824C112.776 16.824 113.811 17.1333 114.621 17.752C115.432 18.3707 115.837 19.2027 115.837 20.248C115.837 21.272 115.571 22.136 115.037 22.84C114.525 23.544 113.896 24.088 113.149 24.472C111.635 25.2187 110.248 25.688 108.989 25.88L108.221 25.976C108.371 27.9813 109.192 28.984 110.685 28.984C111.197 28.984 111.741 28.856 112.317 28.6C112.893 28.344 113.341 28.088 113.661 27.832L114.141 27.448L114.909 28.472C114.739 28.7067 114.397 29.016 113.885 29.4C113.373 29.784 112.893 30.104 112.445 30.36C111.208 31.0427 109.853 31.384 108.381 31.384C106.909 31.384 105.747 30.8613 104.893 29.816C104.04 28.7707 103.613 27.32 103.613 25.464ZM108.189 24.408C109.277 24.216 110.141 23.7573 110.781 23.032C111.421 22.3067 111.741 21.368 111.741 20.216C111.741 19.064 111.4 18.488 110.717 18.488C109.907 18.488 109.277 19.1813 108.829 20.568C108.403 21.9333 108.189 23.2133 108.189 24.408ZM120.875 34.456C120.171 34.8827 119.819 35.2987 119.819 35.704C119.819 36.1093 120.043 36.312 120.491 36.312C120.96 36.312 121.483 36.088 122.059 35.64C122.635 35.2133 123.115 34.5093 123.499 33.528C122.475 33.72 121.6 34.0293 120.875 34.456ZM119.339 31.128C117.547 31.128 116.651 30.1467 116.651 28.184C116.651 27.7147 116.864 26.36 117.291 24.12C117.717 21.88 117.931 20.0133 117.931 18.52C117.931 18.2 117.888 17.9013 117.803 17.624C118.955 17.176 120.533 16.952 122.539 16.952C122.645 17.2507 122.699 17.7627 122.699 18.488C122.699 19.2133 122.464 20.7173 121.995 23C121.525 25.2827 121.291 26.7547 121.291 27.416C121.291 28.0773 121.568 28.408 122.123 28.408C122.784 28.408 123.584 28.0773 124.523 27.416C124.629 26.1573 125.056 22.84 125.803 17.464C126.549 17.1653 127.893 17.016 129.835 17.016H130.443C130.037 18.616 129.643 20.92 129.259 23.928C128.875 26.936 128.565 29.0267 128.331 30.2C127.883 32.5467 127.051 34.456 125.835 35.928C124.64 37.4213 123.072 38.168 121.131 38.168C120.363 38.168 119.659 37.9653 119.019 37.56C118.4 37.1547 118.091 36.632 118.091 35.992C118.091 35.1387 118.613 34.36 119.659 33.656C120.704 32.952 122.112 32.408 123.883 32.024C124.075 31.0853 124.224 30.1787 124.331 29.304C122.603 30.52 120.939 31.128 119.339 31.128Z" fill="black"/>
</svg>
